<?xml version="1.0"?>
<svg version="1.1" xmlns="http://www.w3.org/2000/svg" width="320" height="140" style=""><path fill="#ffffff" d="M16.4892578125,94.04296875q0-1.1474609375,0.06103515625-2.2705078125t0.20751953125-2.2216796875q0.09765625-0.5615234375,0.86669921875-0.8056640625t1.28173828125-0.244140625l0.5859375,0.048828125q0.7080078125,0.09765625,1.42822265625-0.09765625t1.42822265625-0.1953125q1.66015625,0,3.7109375,0.3662109375t3.84521484375,1.2451171875t3.01513671875,2.30712890625t1.220703125,3.52783203125t-1.26953125,3.91845703125t-3.1982421875,3.1982421875t-4.150390625,2.16064453125t-4.0771484375,0.78125q0.1953125,4.7119140625,0.54931640625,9.3505859375t1.20849609375,9.27734375l0.048828125,0.3173828125q0,0.341796875-0.30517578125,0.5615234375t-0.72021484375,0.35400390625t-0.84228515625,0.18310546875t-0.69580078125,0.048828125q-0.6103515625,0-1.47705078125-0.23193359375t-1.06201171875-0.91552734375q-0.5615234375-2.1484375-0.87890625-4.72412109375t-0.4638671875-5.38330078125t-0.20751953125-5.65185546875t-0.06103515625-5.55419921875l0-5.4931640625q0-0.9033203125-0.0244140625-1.8798828125t-0.0244140625-1.9775390625z M21.103515625,90.087890625q0,3.3447265625,0.0732421875,6.67724609375t0.1708984375,6.67724609375q1.4404296875-0.29296875,2.94189453125-1.03759765625t2.7099609375-1.77001953125t1.953125-2.33154296875t0.74462890625-2.74658203125q0-1.2939453125-0.64697265625-2.3193359375t-1.67236328125-1.7578125q-1.0009765625-0.7080078125-2.2705078125-1.0986328125q-1.123046875-0.341796875-2.197265625-0.341796875l-0.2685546875,0z M39.137451171875,109.0576171875q0-1.0009765625,0.35400390625-1.6845703125t1.50146484375-0.68359375q0.439453125,0,1.0986328125,0.13427734375t0.7568359375,0.67138671875q0.244140625,1.4404296875,0.2685546875,3.125t0.1708984375,3.173828125q0.5615234375-1.0986328125,1.4404296875-2.3681640625t2.001953125-2.34375t2.44140625-1.7822265625t2.685546875-0.7080078125q0.09765625,0,0.3662109375,0.0732421875t0.50048828125,0.20751953125t0.28076171875,0.30517578125t-0.2685546875,0.3173828125q-0.09765625,0.29296875-0.4150390625,0.35400390625t-0.5615234375,0.06103515625q-0.146484375,0-0.4638671875-0.1220703125q-1.806640625,0.9521484375-3.076171875,2.587890625t-2.0751953125,3.62548828125t-1.171875,4.19921875t-0.3662109375,4.30908203125q0,1.0498046875-0.47607421875,1.26953125t-1.52587890625,0.2197265625q-0.5615234375,0-1.18408203125-0.1220703125t-0.86669921875-0.78125q-0.439453125-1.3916015625-0.72021484375-3.1982421875t-0.42724609375-3.72314453125t-0.20751953125-3.77197265625t-0.06103515625-3.3447265625z M55.99951171875,116.357421875q0-1.3916015625,0.35400390625-2.86865234375t1.123046875-2.6611328125t1.94091796875-1.9287109375t2.83203125-0.74462890625q1.2451171875,0,2.62451171875,0.42724609375t2.52685546875,1.220703125t1.86767578125,1.94091796875t0.72021484375,2.5634765625q0,1.708984375-0.62255859375,3.2470703125t-1.74560546875,2.74658203125t-2.62451171875,1.904296875t-3.25927734375,0.69580078125q-1.4404296875,0-2.5146484375-0.52490234375t-1.79443359375-1.40380859375t-1.07421875-2.0751953125t-0.35400390625-2.5390625z M59.58837890625,116.30859375q0,0.439453125,0.13427734375,1.2939453125t0.40283203125,1.67236328125t0.69580078125,1.416015625t1.03759765625,0.54931640625q1.2939453125-0.146484375,2.13623046875-0.84228515625t1.3671875-1.69677734375t0.732421875-2.1728515625t0.20751953125-2.2216796875q0-1.3427734375-0.52490234375-2.24609375t-1.72119140625-1.46484375q0,0.048828125,0.048828125,0.048828125t0.048828125-0.048828125l-0.6103515625-0.146484375q-0.244140625-0.09765625-0.59814453125-0.2197265625t-0.69580078125-0.537109375q-0.9521484375,0.341796875-1.47705078125,0.87890625t-0.79345703125,1.30615234375t-0.32958984375,1.84326171875t-0.06103515625,2.587890625z M70.383544921875,142.00439453125q0.08544921875-0.35400390625,0.35400390625-0.54931640625t0.87890625-0.1953125q0.6591796875,0,1.2451171875,0.390625t0.8544921875,0.9521484375q0.8544921875-1.3427734375,1.3427734375-3.125t0.74462890625-3.7109375t0.30517578125-3.79638671875t0.048828125-3.43017578125q0-4.9072265625,0.1220703125-9.6435546875t0.390625-9.6435546875q0-0.341796875,0.29296875-0.57373046875t0.67138671875-0.35400390625t0.78125-0.1708984375t0.69580078125-0.048828125q0.5615234375,0,1.0986328125,0.146484375t1.0009765625,0.439453125l0.29296875,0.5615234375q-0.048828125,3.4912109375-0.1953125,6.97021484375t-0.146484375,6.92138671875q0,1.3427734375,0.048828125,3.515625q0.0244140625,0.7080078125,0.0244140625,1.46484375q0,1.513671875-0.0732421875,3.173828125q-0.09765625,2.490234375-0.42724609375,5.01708984375t-1.07421875,4.57763671875t-2.0263671875,3.35693359375t-3.23486328125,1.30615234375q-0.8544921875,0-1.59912109375-0.20751953125t-1.33056640625-0.79345703125q-0.5615234375-0.48828125-0.8056640625-1.0498046875q-0.146484375-0.341796875-0.25634765625-0.74462890625t-0.0244140625-0.7568359375z M77.304931640625,102.9541015625l0-1.50146484375t0.1708984375-1.318359375t0.64697265625-0.927734375t1.37939453125-0.35400390625q0.341796875,0,0.69580078125,0.048828125t0.67138671875,0.1953125l0.537109375,0.6103515625q0,0.7080078125,0.0244140625,1.5625l0,0.1953125q0,0.732421875-0.146484375,1.3671875q-0.1708984375,0.7568359375-0.62255859375,1.28173828125t-1.40380859375,0.52490234375q-0.7568359375,0-1.1474609375-0.2197265625t-0.7568359375-0.927734375z M86.5009765625,116.89453125q0-1.708984375,0.37841796875-4.0283203125t1.28173828125-4.39453125t2.38037109375-3.52783203125t3.72314453125-1.45263671875q2.099609375,0,3.1494140625,1.20849609375t1.0498046875,3.25927734375q0,1.3427734375-0.50048828125,2.94189453125t-1.42822265625,3.02734375t-2.197265625,2.38037109375t-2.83203125,0.9521484375l-0.634765625-0.048828125q0,0.6591796875,0.1953125,1.77001953125t0.57373046875,2.20947265625t0.9765625,1.9287109375t1.45263671875,0.830078125q1.2451171875,0,2.392578125-1.0009765625t2.1728515625-2.2216796875t1.904296875-2.2216796875t1.611328125-1.0009765625q0.390625,0,0.8056640625,0.1220703125t0.4638671875,0.68359375q0,0.341796875-0.18310546875,0.5615234375t-0.32958984375,0.48828125q-0.7568359375,1.2939453125-1.64794921875,2.4658203125t-2.01416015625,2.1240234375t-2.45361328125,1.50146484375t-2.94189453125,0.54931640625q-2.099609375,0-3.4912109375-0.74462890625t-2.24609375-2.001953125t-1.23291015625-2.9052734375t-0.37841796875-3.45458984375z M90.87109375,115.0390625l0.68359375,0.6103515625q0.48828125,0.439453125,0.9765625,0.1953125t0.87890625-0.89111328125t0.72021484375-1.59912109375t0.5859375-1.953125t0.37841796875-1.953125t0.1220703125-1.5869140625l0-0.830078125t-0.0732421875-0.87890625t-0.25634765625-0.69580078125t-0.57373046875-0.35400390625q-0.1220703125-0.0244140625-0.2197265625-0.0244140625q-0.830078125,0-1.416015625,1.0498046875q-0.634765625,1.171875-1.025390625,2.84423828125t-0.5615234375,3.43017578125t-0.2197265625,2.63671875z M106.90307617188,115.4052734375q0-1.7578125,0.45166015625-3.52783203125t1.40380859375-3.173828125t2.42919921875-2.28271484375t3.47900390625-0.87890625q0.8544921875,0,1.8798828125,0.20751953125t1.89208984375,0.6591796875t1.46484375,1.171875t0.59814453125,1.77001953125q0,0.6591796875-0.341796875,0.87890625t-0.9033203125,0.2197265625l-0.1708984375-0.244140625t-0.47607421875-0.62255859375t-0.64697265625-0.8056640625t-0.6591796875-0.72021484375q-1.0009765625-1.0009765625-1.8798828125-1.07421875l-0.1953125,0q-0.732421875,0-1.3671875,0.439453125q-0.7080078125,0.537109375-1.25732421875,1.513671875t-0.91552734375,2.0751953125t-0.57373046875,2.2216796875t-0.20751953125,1.85546875q0,1.0009765625,0.23193359375,2.28271484375t0.78125,2.42919921875t1.3916015625,1.9287109375t2.16064453125,0.78125q1.1962890625,0,2.1728515625-0.5859375t1.86767578125-1.30615234375t1.74560546875-1.2939453125t1.7578125-0.57373046875q0.390625,0,0.79345703125,0.09765625t0.40283203125,0.5126953125l0,0.146484375q-0.439453125,1.1474609375-1.4892578125,2.0263671875t-2.35595703125,1.52587890625t-2.7099609375,0.96435546875t-2.50244140625,0.3173828125q-2.05078125,0-3.60107421875-0.67138671875t-2.57568359375-1.84326171875t-1.55029296875-2.81982421875t-0.52490234375-3.60107421875z M127.20751953125,100.390625q0-0.341796875,0.732421875-0.5859375t1.66015625-0.40283203125t1.79443359375-0.23193359375t1.18408203125-0.1220703125q0-0.6591796875,0.048828125-1.33056640625t0.2685546875-1.1962890625t0.69580078125-0.84228515625t1.33056640625-0.3173828125q0.7080078125,0,1.07421875,0.1708984375t0.78125,0.7080078125q0.09765625,0.29296875,0.09765625,0.5615234375l0,0.81787109375t-0.048828125,0.84228515625q0.9033203125-0.09765625,1.79443359375-0.23193359375t1.79443359375-0.13427734375q0.6591796875,0,0.9033203125,0.0244140625t0.48828125,0.5859375q0.1953125,0.5615234375-0.47607421875,0.8544921875t-1.611328125,0.439453125t-1.86767578125,0.2197265625t-1.123046875,0.0732421875q-0.29296875,4.19921875-0.59814453125,8.3251953125t-0.30517578125,8.3740234375q0,1.904296875,0.1220703125,3.9306640625t0.68359375,3.8330078125q0.146484375,0.5615234375,0.48828125,1.0498046875t0.341796875,1.0498046875q0,0.341796875-0.2685546875,0.537109375t-0.64697265625,0.32958984375t-0.7568359375,0.15869140625t-0.62255859375,0.0244140625q-1.5380859375,0-2.34375-1.1474609375t-1.15966796875-2.74658203125t-0.37841796875-3.28369140625t-0.0244140625-2.734375q0-2.1484375,0.08544921875-4.39453125t0.20751953125-4.443359375t0.341796875-4.296875t0.5126953125-3.90625q-0.8544921875,0.09765625-1.67236328125,0.2197265625t-1.67236328125,0.1220703125q-0.1953125,0-0.52490234375-0.0244140625t-0.62255859375-0.1220703125t-0.50048828125-0.2685546875t-0.20751953125-0.48828125z M155.4384765625,121.044921875q-0.0244140625-0.732421875-0.0244140625-1.46484375q0-2.294921875,0.244140625-4.6142578125q0.29296875-3.076171875,0.390625-6.0546875q0.09765625-3.4912109375,0.29296875-7.2509765625q0.1220703125-2.05078125,0.1220703125-4.052734375q0-1.6357421875-0.0732421875-3.2470703125q0.244140625-0.5615234375,0.64697265625-0.7568359375t1.01318359375-0.1953125q0.29296875,0,0.62255859375,0.048828125t0.57373046875,0.244140625q0.341796875,0.048828125,0.84228515625,0.09765625t0.76904296875,0.29296875q0.09765625,0.146484375,0.50048828125,1.0009765625t0.9521484375,2.0751953125t1.1474609375,2.64892578125t1.1474609375,2.7099609375t0.9521484375,2.25830078125t0.50048828125,1.220703125q2.294921875-4.150390625,4.4921875-8.53271484375t4.8095703125-8.26416015625q0.244140625-0.341796875,0.84228515625-0.50048828125t0.98876953125-0.15869140625q1.0498046875,0,1.52587890625,0.50048828125t0.62255859375,1.28173828125q0.09765625,0.48828125,0.1220703125,1.0498046875q0.0244140625,0.29296875-0.0244140625,0.6103515625q-0.09765625,0.9033203125-0.09765625,1.708984375q0,5.6884765625-0.390625,11.29150390625t-0.7080078125,11.31591796875q-0.048828125,1.171875-0.048828125,2.44140625t0.048828125,2.63671875q0.0244140625,0.48828125,0.0244140625,0.9521484375q0,2.1484375-0.3662109375,4.00390625q-0.341796875,0.5615234375-1.123046875,0.7080078125t-1.318359375,0.146484375q-1.1474609375,0-2.197265625-0.537109375l-0.2685546875-0.3173828125l-0.09765625-0.390625t-0.048828125-0.390625q0-3.5400390625,0.25634765625-7.12890625t0.57373046875-7.16552734375t0.67138671875-7.14111328125t0.59814453125-7.12890625q-1.4404296875,2.392578125-2.79541015625,4.87060546875t-2.55126953125,5.04150390625q-0.439453125,1.0009765625-0.84228515625,2.1484375t-0.96435546875,2.05078125q-0.29296875,0.439453125-0.98876953125,0.537109375t-1.20849609375,0.09765625q-0.48828125,0-1.01318359375-0.1708984375t-0.72021484375-0.732421875q-0.9033203125-2.7587890625-1.9287109375-5.3955078125t-2.0751953125-5.3466796875q0,1.806640625,0.0732421875,4.67529296875t0.0732421875,5.94482421875t-0.09765625,5.8837890625t-0.4638671875,4.443359375q-0.09765625,0.6103515625-0.79345703125,0.7568359375t-1.20849609375,0.146484375q-0.390625,0-0.74462890625-0.048828125t-0.69580078125-0.1953125z M184.43432617188,115.8935546875q0-1.66015625,0.45166015625-3.1982421875t1.35498046875-2.74658203125t2.25830078125-1.9287109375t3.13720703125-0.72021484375q1.0986328125,0,2.42919921875,0.32958984375t2.50244140625,0.9765625t1.953125,1.64794921875t0.78125,2.294921875q0,0.6103515625-0.20751953125,0.927734375t-0.84228515625,0.3173828125l-0.2685546875-0.048828125q0.7080078125,1.904296875,1.220703125,3.90625t1.0009765625,4.00390625q0.1953125,0.390625,0.29296875,0.69580078125t0.09765625,0.59814453125q0,0.390625-0.2197265625,0.64697265625t-0.57373046875,0.37841796875t-0.732421875,0.1708984375t-0.67138671875,0.048828125q-1.0498046875,0-1.57470703125-0.3662109375t-0.7568359375-1.0009765625t-0.28076171875-1.42822265625t-0.1953125-1.59912109375q-0.29296875,0.9521484375-0.76904296875,1.85546875t-1.123046875,1.62353515625t-1.52587890625,1.1474609375t-1.9775390625,0.42724609375q-1.611328125,0-2.7099609375-0.927734375t-1.77001953125-2.28271484375t-0.9765625-2.89306640625t-0.30517578125-2.8564453125z M187.90112304688,115.5517578125q0,0.9033203125,0.1220703125,1.904296875t0.40283203125,1.9775390625t0.72021484375,1.84326171875t1.0986328125,1.52587890625q1.1962890625-1.2939453125,1.77001953125-3.1494140625t1.025390625-3.57666015625t1.025390625-2.9541015625t1.77001953125-1.23291015625q0.7568359375,0,1.26953125,0.2685546875q-0.244140625-0.6103515625-0.8056640625-1.18408203125t-1.25732421875-1.0498046875t-1.4404296875-0.78125t-1.40380859375-0.30517578125q-0.1953125,0-0.45166015625,0.06103515625t-0.40283203125,0.01220703125q-1.0009765625,0.29296875-1.64794921875,1.01318359375t-1.0498046875,1.69677734375t-0.57373046875,2.001953125t-0.1708984375,1.9287109375z M205.61767578125,116.015625l0-0.7080078125q0-0.87890625,0.048828125-1.66015625q0.048828125-1.0986328125,0.048828125-1.806640625q0-0.390625,0.048828125-0.89111328125t0.244140625-0.79345703125q0.244140625-0.244140625,0.57373046875-0.50048828125t0.72021484375-0.25634765625q1.2451171875,0,1.953125,0.28076171875t0.7568359375,1.15966796875l0.09765625,0.7568359375q0.439453125-1.0498046875,1.171875-2.60009765625t1.69677734375-2.9541015625t2.1728515625-2.392578125t2.55126953125-0.98876953125q1.2451171875,0,2.05078125,1.171875t1.28173828125,2.99072265625t0.67138671875,4.052734375t0.2685546875,4.38232421875t0.09765625,3.91845703125t0.1708984375,2.67333984375q0.09765625,0.7568359375,0.32958984375,1.59912109375t0.23193359375,1.55029296875q0,0.1953125-0.28076171875,0.37841796875t-0.59814453125,0.30517578125t-0.64697265625,0.1953125t-0.47607421875,0.0732421875q-0.9521484375,0-1.35498046875-1.42822265625t-0.50048828125-3.57666015625t-0.09765625-4.65087890625t-0.1708984375-4.65087890625t-0.69580078125-3.57666015625t-1.67236328125-1.47705078125q-1.0498046875,0-2.1728515625,1.35498046875t-1.9287109375,3.60107421875q-0.78125,2.24609375-1.07421875,5.1025390625q-0.09765625,0.9033203125-0.09765625,1.806640625q0,1.9775390625,0.4150390625,3.955078125q0.048828125,0.341796875-0.28076171875,0.5126953125t-0.81787109375,0.2685546875t-0.98876953125,0.1220703125t-0.76904296875,0.0244140625q-0.9521484375,0-1.52587890625-0.67138671875t-0.89111328125-1.72119140625t-0.42724609375-2.35595703125t-0.13427734375-2.57568359375z M227.80200195312,115.8935546875q0-1.66015625,0.45166015625-3.1982421875t1.35498046875-2.74658203125t2.25830078125-1.9287109375t3.13720703125-0.72021484375q1.0986328125,0,2.42919921875,0.32958984375t2.50244140625,0.9765625t1.953125,1.64794921875t0.78125,2.294921875q0,0.6103515625-0.20751953125,0.927734375t-0.84228515625,0.3173828125l-0.2685546875-0.048828125q0.7080078125,1.904296875,1.220703125,3.90625t1.0009765625,4.00390625q0.1953125,0.390625,0.29296875,0.69580078125t0.09765625,0.59814453125q0,0.390625-0.2197265625,0.64697265625t-0.57373046875,0.37841796875t-0.732421875,0.1708984375t-0.67138671875,0.048828125q-1.0498046875,0-1.57470703125-0.3662109375t-0.7568359375-1.0009765625t-0.28076171875-1.42822265625t-0.1953125-1.59912109375q-0.29296875,0.9521484375-0.76904296875,1.85546875t-1.123046875,1.62353515625t-1.52587890625,1.1474609375t-1.9775390625,0.42724609375q-1.611328125,0-2.7099609375-0.927734375t-1.77001953125-2.28271484375t-0.9765625-2.89306640625t-0.30517578125-2.8564453125z M231.26879882812,115.5517578125q0,0.9033203125,0.1220703125,1.904296875t0.40283203125,1.9775390625t0.72021484375,1.84326171875t1.0986328125,1.52587890625q1.1962890625-1.2939453125,1.77001953125-3.1494140625t1.025390625-3.57666015625t1.025390625-2.9541015625t1.77001953125-1.23291015625q0.7568359375,0,1.26953125,0.2685546875q-0.244140625-0.6103515625-0.8056640625-1.18408203125t-1.25732421875-1.0498046875t-1.4404296875-0.78125t-1.40380859375-0.30517578125q-0.1953125,0-0.45166015625,0.06103515625t-0.40283203125,0.01220703125q-1.0009765625,0.29296875-1.64794921875,1.01318359375t-1.0498046875,1.69677734375t-0.57373046875,2.001953125t-0.1708984375,1.9287109375z M248.9609375,115.0390625q0-1.3427734375,0.25634765625-2.86865234375t0.87890625-2.79541015625t1.72119140625-2.099609375t2.8076171875-0.830078125q1.1474609375,0,2.2216796875,0.37841796875t2.0263671875,1.03759765625q0.29296875-0.48828125,0.927734375-0.59814453125t1.123046875-0.10986328125q0.1953125,0,0.54931640625,0.0244140625t0.69580078125,0.146484375t0.59814453125,0.29296875t0.30517578125,0.48828125q0.1953125,1.708984375,0.2685546875,3.40576171875t0.2197265625,3.38134765625q0.244140625,3.1494140625,0.7568359375,6.2255859375t0.5126953125,6.2255859375q0,1.4892578125-0.13427734375,3.22265625t-0.7080078125,3.21044921875t-1.67236328125,2.45361328125t-3.0517578125,0.9765625q-1.7578125,0-2.69775390625-0.62255859375t-1.69677734375-2.08740234375q0.048828125-0.48828125,0.62255859375-0.64697265625t0.98876953125-0.15869140625q0.390625,0,0.79345703125,0.0732421875t0.64697265625,0.244140625l0.6103515625,0.390625q0.9033203125-1.85546875,1.0986328125-4.052734375t0.1953125-4.248046875q0-1.708984375-0.1708984375-3.38134765625t-0.341796875-3.35693359375q-1.708984375,3.1005859375-5.2001953125,3.1005859375q-1.611328125,0-2.62451171875-0.68359375t-1.5625-1.7333984375t-0.7568359375-2.3681640625t-0.20751953125-2.63671875z M251.9638671875,115.2587890625q0,0.6103515625,0.048828125,1.57470703125t0.25634765625,1.89208984375t0.59814453125,1.59912109375t1.0986328125,0.67138671875q1.3427734375,0,2.1240234375-1.0498046875t1.23291015625-2.50244140625t0.72021484375-3.0029296875t0.68359375-2.55126953125q-0.048828125-0.341796875-0.048828125-0.67138671875l0-0.67138671875q-0.5615234375-1.0498046875-1.6357421875-1.81884765625t-2.2216796875-1.03759765625q-0.146484375-0.0244140625-0.2685546875-0.0244140625q-0.68359375,0-1.123046875,0.8056640625q-0.5615234375,0.9765625-0.87890625,2.33154296875t-0.45166015625,2.67333984375t-0.13427734375,1.7822265625z M269.82690429688,116.89453125q0-1.708984375,0.37841796875-4.0283203125t1.28173828125-4.39453125t2.38037109375-3.52783203125t3.72314453125-1.45263671875q2.099609375,0,3.1494140625,1.20849609375t1.0498046875,3.25927734375q0,1.3427734375-0.50048828125,2.94189453125t-1.42822265625,3.02734375t-2.197265625,2.38037109375t-2.83203125,0.9521484375l-0.634765625-0.048828125q0,0.6591796875,0.1953125,1.77001953125t0.57373046875,2.20947265625t0.9765625,1.9287109375t1.45263671875,0.830078125q1.2451171875,0,2.392578125-1.0009765625t2.1728515625-2.2216796875t1.904296875-2.2216796875t1.611328125-1.0009765625q0.390625,0,0.8056640625,0.1220703125t0.4638671875,0.68359375q0,0.341796875-0.18310546875,0.5615234375t-0.32958984375,0.48828125q-0.7568359375,1.2939453125-1.64794921875,2.4658203125t-2.01416015625,2.1240234375t-2.45361328125,1.50146484375t-2.94189453125,0.54931640625q-2.099609375,0-3.4912109375-0.74462890625t-2.24609375-2.001953125t-1.23291015625-2.9052734375t-0.37841796875-3.45458984375z M274.19702148438,115.0390625l0.68359375,0.6103515625q0.48828125,0.439453125,0.9765625,0.1953125t0.87890625-0.89111328125t0.72021484375-1.59912109375t0.5859375-1.953125t0.37841796875-1.953125t0.1220703125-1.5869140625l0-0.830078125t-0.0732421875-0.87890625t-0.25634765625-0.69580078125t-0.57373046875-0.35400390625q-0.1220703125-0.0244140625-0.2197265625-0.0244140625q-0.830078125,0-1.416015625,1.0498046875q-0.634765625,1.171875-1.025390625,2.84423828125t-0.5615234375,3.43017578125t-0.2197265625,2.63671875z M290.22900390625,109.0576171875q0-1.0009765625,0.35400390625-1.6845703125t1.50146484375-0.68359375q0.439453125,0,1.0986328125,0.13427734375t0.7568359375,0.67138671875q0.244140625,1.4404296875,0.2685546875,3.125t0.1708984375,3.173828125q0.5615234375-1.0986328125,1.4404296875-2.3681640625t2.001953125-2.34375t2.44140625-1.7822265625t2.685546875-0.7080078125q0.09765625,0,0.3662109375,0.0732421875t0.50048828125,0.20751953125t0.28076171875,0.30517578125t-0.2685546875,0.3173828125q-0.09765625,0.29296875-0.4150390625,0.35400390625t-0.5615234375,0.06103515625q-0.146484375,0-0.4638671875-0.1220703125q-1.806640625,0.9521484375-3.076171875,2.587890625t-2.0751953125,3.62548828125t-1.171875,4.19921875t-0.3662109375,4.30908203125q0,1.0498046875-0.47607421875,1.26953125t-1.52587890625,0.2197265625q-0.5615234375,0-1.18408203125-0.1220703125t-0.86669921875-0.78125q-0.439453125-1.3916015625-0.72021484375-3.1982421875t-0.42724609375-3.72314453125t-0.20751953125-3.77197265625t-0.06103515625-3.3447265625z"/><path fill="#" d=""/></svg>
